<mxfile host="app.diagrams.net" modified="2024-07-04T06:12:03.623Z" agent="Mozilla/5.0 (Macintosh; Intel Mac OS X 10_15_7) AppleWebKit/537.36 (KHTML, like Gecko) Chrome/126.0.0.0 Safari/537.36" etag="2mcosdoNQSCRjqCJZ4nP" version="24.6.4" type="github">
  <diagram name="第 1 页" id="Jsab-jnm6UaxY9wLTbV5">
    <mxGraphModel dx="954" dy="581" grid="1" gridSize="10" guides="1" tooltips="1" connect="1" arrows="1" fold="1" page="1" pageScale="1" pageWidth="827" pageHeight="1169" math="0" shadow="0">
      <root>
        <mxCell id="0" />
        <mxCell id="1" parent="0" />
        <mxCell id="QJWTps0vCfm2FNkZpQqd-5" value="IPM" style="shape=umlLifeline;perimeter=lifelinePerimeter;whiteSpace=wrap;html=1;container=1;dropTarget=0;collapsible=0;recursiveResize=0;outlineConnect=0;portConstraint=eastwest;newEdgeStyle={&quot;curved&quot;:0,&quot;rounded&quot;:0};" vertex="1" parent="1">
          <mxGeometry x="290" y="210" width="100" height="500" as="geometry" />
        </mxCell>
        <mxCell id="QJWTps0vCfm2FNkZpQqd-6" value="" style="html=1;points=[[0,0,0,0,5],[0,1,0,0,-5],[1,0,0,0,5],[1,1,0,0,-5]];perimeter=orthogonalPerimeter;outlineConnect=0;targetShapes=umlLifeline;portConstraint=eastwest;newEdgeStyle={&quot;curved&quot;:0,&quot;rounded&quot;:0};" vertex="1" parent="QJWTps0vCfm2FNkZpQqd-5">
          <mxGeometry x="45" y="90" width="10" height="170" as="geometry" />
        </mxCell>
        <mxCell id="QJWTps0vCfm2FNkZpQqd-14" value="" style="html=1;points=[[0,0,0,0,5],[0,1,0,0,-5],[1,0,0,0,5],[1,1,0,0,-5]];perimeter=orthogonalPerimeter;outlineConnect=0;targetShapes=umlLifeline;portConstraint=eastwest;newEdgeStyle={&quot;curved&quot;:0,&quot;rounded&quot;:0};" vertex="1" parent="QJWTps0vCfm2FNkZpQqd-5">
          <mxGeometry x="50" y="110" width="10" height="50" as="geometry" />
        </mxCell>
        <mxCell id="QJWTps0vCfm2FNkZpQqd-15" value="" style="html=1;points=[[0,0,0,0,5],[0,1,0,0,-5],[1,0,0,0,5],[1,1,0,0,-5]];perimeter=orthogonalPerimeter;outlineConnect=0;targetShapes=umlLifeline;portConstraint=eastwest;newEdgeStyle={&quot;curved&quot;:0,&quot;rounded&quot;:0};" vertex="1" parent="QJWTps0vCfm2FNkZpQqd-5">
          <mxGeometry x="50" y="200" width="10" height="40" as="geometry" />
        </mxCell>
        <mxCell id="QJWTps0vCfm2FNkZpQqd-16" value="海外仓信息入库（新增/更新）" style="html=1;align=left;spacingLeft=2;endArrow=block;rounded=0;edgeStyle=orthogonalEdgeStyle;curved=0;rounded=0;" edge="1" target="QJWTps0vCfm2FNkZpQqd-15" parent="QJWTps0vCfm2FNkZpQqd-5">
          <mxGeometry relative="1" as="geometry">
            <mxPoint x="55" y="180" as="sourcePoint" />
            <Array as="points">
              <mxPoint x="85" y="210" />
            </Array>
          </mxGeometry>
        </mxCell>
        <mxCell id="QJWTps0vCfm2FNkZpQqd-18" value="" style="html=1;points=[[0,0,0,0,5],[0,1,0,0,-5],[1,0,0,0,5],[1,1,0,0,-5]];perimeter=orthogonalPerimeter;outlineConnect=0;targetShapes=umlLifeline;portConstraint=eastwest;newEdgeStyle={&quot;curved&quot;:0,&quot;rounded&quot;:0};" vertex="1" parent="QJWTps0vCfm2FNkZpQqd-5">
          <mxGeometry x="47" y="310" width="10" height="130" as="geometry" />
        </mxCell>
        <mxCell id="QJWTps0vCfm2FNkZpQqd-22" value="" style="html=1;points=[[0,0,0,0,5],[0,1,0,0,-5],[1,0,0,0,5],[1,1,0,0,-5]];perimeter=orthogonalPerimeter;outlineConnect=0;targetShapes=umlLifeline;portConstraint=eastwest;newEdgeStyle={&quot;curved&quot;:0,&quot;rounded&quot;:0};" vertex="1" parent="QJWTps0vCfm2FNkZpQqd-5">
          <mxGeometry x="55" y="365" width="10" height="40" as="geometry" />
        </mxCell>
        <mxCell id="QJWTps0vCfm2FNkZpQqd-23" value="预设资料同步" style="html=1;align=left;spacingLeft=2;endArrow=block;rounded=0;edgeStyle=orthogonalEdgeStyle;curved=0;rounded=0;" edge="1" target="QJWTps0vCfm2FNkZpQqd-22" parent="QJWTps0vCfm2FNkZpQqd-5">
          <mxGeometry relative="1" as="geometry">
            <mxPoint x="60" y="345" as="sourcePoint" />
            <Array as="points">
              <mxPoint x="90" y="375" />
            </Array>
          </mxGeometry>
        </mxCell>
        <mxCell id="QJWTps0vCfm2FNkZpQqd-9" value="WMS" style="shape=umlLifeline;perimeter=lifelinePerimeter;whiteSpace=wrap;html=1;container=1;dropTarget=0;collapsible=0;recursiveResize=0;outlineConnect=0;portConstraint=eastwest;newEdgeStyle={&quot;curved&quot;:0,&quot;rounded&quot;:0};" vertex="1" parent="1">
          <mxGeometry x="540" y="210" width="100" height="500" as="geometry" />
        </mxCell>
        <mxCell id="QJWTps0vCfm2FNkZpQqd-10" value="" style="html=1;points=[[0,0,0,0,5],[0,1,0,0,-5],[1,0,0,0,5],[1,1,0,0,-5]];perimeter=orthogonalPerimeter;outlineConnect=0;targetShapes=umlLifeline;portConstraint=eastwest;newEdgeStyle={&quot;curved&quot;:0,&quot;rounded&quot;:0};" vertex="1" parent="QJWTps0vCfm2FNkZpQqd-9">
          <mxGeometry x="45" y="110" width="10" height="50" as="geometry" />
        </mxCell>
        <mxCell id="QJWTps0vCfm2FNkZpQqd-11" value="查询 WMS 海外仓-子仓信息" style="html=1;verticalAlign=bottom;endArrow=block;curved=0;rounded=0;entryX=0;entryY=0;entryDx=0;entryDy=5;exitX=1;exitY=0;exitDx=0;exitDy=5;exitPerimeter=0;" edge="1" target="QJWTps0vCfm2FNkZpQqd-10" parent="1" source="QJWTps0vCfm2FNkZpQqd-14">
          <mxGeometry relative="1" as="geometry">
            <mxPoint x="515" y="325" as="sourcePoint" />
          </mxGeometry>
        </mxCell>
        <mxCell id="QJWTps0vCfm2FNkZpQqd-12" value="返回信息（全量）" style="html=1;verticalAlign=bottom;endArrow=open;dashed=1;endSize=8;curved=0;rounded=0;exitX=0;exitY=1;exitDx=0;exitDy=-5;entryX=1;entryY=1;entryDx=0;entryDy=-5;entryPerimeter=0;" edge="1" source="QJWTps0vCfm2FNkZpQqd-10" parent="1" target="QJWTps0vCfm2FNkZpQqd-14">
          <mxGeometry relative="1" as="geometry">
            <mxPoint x="510" y="365" as="targetPoint" />
          </mxGeometry>
        </mxCell>
        <mxCell id="QJWTps0vCfm2FNkZpQqd-17" value="业务模型：海外仓" style="html=1;whiteSpace=wrap;fillColor=#1ba1e2;fontColor=#ffffff;strokeColor=#006EAF;" vertex="1" parent="1">
          <mxGeometry x="400" y="410" width="110" height="50" as="geometry" />
        </mxCell>
        <mxCell id="QJWTps0vCfm2FNkZpQqd-21" value="" style="shape=umlLifeline;perimeter=lifelinePerimeter;whiteSpace=wrap;html=1;container=1;dropTarget=0;collapsible=0;recursiveResize=0;outlineConnect=0;portConstraint=eastwest;newEdgeStyle={&quot;curved&quot;:0,&quot;rounded&quot;:0};participant=umlActor;" vertex="1" parent="1">
          <mxGeometry x="100" y="210" width="20" height="510" as="geometry" />
        </mxCell>
        <mxCell id="QJWTps0vCfm2FNkZpQqd-7" value="获取海外仓数据" style="html=1;verticalAlign=bottom;endArrow=block;curved=0;rounded=0;entryX=0;entryY=0;entryDx=0;entryDy=5;" edge="1" target="QJWTps0vCfm2FNkZpQqd-6" parent="1" source="QJWTps0vCfm2FNkZpQqd-21">
          <mxGeometry relative="1" as="geometry">
            <mxPoint x="240" y="305" as="sourcePoint" />
          </mxGeometry>
        </mxCell>
        <mxCell id="QJWTps0vCfm2FNkZpQqd-8" value="return" style="html=1;verticalAlign=bottom;endArrow=open;dashed=1;endSize=8;curved=0;rounded=0;exitX=0;exitY=1;exitDx=0;exitDy=-5;" edge="1" source="QJWTps0vCfm2FNkZpQqd-6" parent="1" target="QJWTps0vCfm2FNkZpQqd-21">
          <mxGeometry relative="1" as="geometry">
            <mxPoint x="250" y="465" as="targetPoint" />
          </mxGeometry>
        </mxCell>
        <mxCell id="QJWTps0vCfm2FNkZpQqd-19" value="海外仓信息同步预设资料" style="html=1;verticalAlign=bottom;endArrow=block;curved=0;rounded=0;entryX=0;entryY=0;entryDx=0;entryDy=5;" edge="1" target="QJWTps0vCfm2FNkZpQqd-18" parent="1" source="QJWTps0vCfm2FNkZpQqd-21">
          <mxGeometry relative="1" as="geometry">
            <mxPoint x="240" y="525" as="sourcePoint" />
          </mxGeometry>
        </mxCell>
        <mxCell id="QJWTps0vCfm2FNkZpQqd-20" value="return" style="html=1;verticalAlign=bottom;endArrow=open;dashed=1;endSize=8;curved=0;rounded=0;exitX=0;exitY=1;exitDx=0;exitDy=-5;" edge="1" source="QJWTps0vCfm2FNkZpQqd-18" parent="1" target="QJWTps0vCfm2FNkZpQqd-21">
          <mxGeometry relative="1" as="geometry">
            <mxPoint x="270" y="595" as="targetPoint" />
          </mxGeometry>
        </mxCell>
        <mxCell id="QJWTps0vCfm2FNkZpQqd-24" value="业务模型：预设资料" style="html=1;whiteSpace=wrap;fillColor=#1ba1e2;fontColor=#ffffff;strokeColor=#006EAF;" vertex="1" parent="1">
          <mxGeometry x="400" y="577" width="110" height="50" as="geometry" />
        </mxCell>
      </root>
    </mxGraphModel>
  </diagram>
</mxfile>
